<svg id="Group_16180" data-name="Group 16180" xmlns="http://www.w3.org/2000/svg" width="89.999" height="90" viewBox="0 0 89.999 90">
  <path id="Path_35682" data-name="Path 35682" d="M541.128,41.934,530.486,31.291V16.24a4.34,4.34,0,0,0-4.335-4.335H511.1L500.461,1.262a4.355,4.355,0,0,0-6.132,0L483.687,11.905H468.639A4.341,4.341,0,0,0,464.3,16.24V31.291L453.662,41.934a4.341,4.341,0,0,0,0,6.131L464.3,58.709V73.76a4.342,4.342,0,0,0,4.337,4.337h15.048L494.33,88.738a4.354,4.354,0,0,0,6.131,0L511.1,78.1h15.049a4.342,4.342,0,0,0,4.335-4.337V58.709l10.641-10.643a4.341,4.341,0,0,0,0-6.131ZM517.945,26.251a.673.673,0,0,1-.675.671H516.6V25.634a3.1,3.1,0,0,0-3.09-3.051H502.842a3.1,3.1,0,0,0-3.089,3.074V48.864h5.492a3.107,3.107,0,0,0,3.1-3.105v-11a3.1,3.1,0,0,0-3.1-3.105H503.5v-.671a.672.672,0,0,1,.671-.671H517.27a.673.673,0,0,1,.675.671v.671h-1.786a3.1,3.1,0,0,0-3.1,3.105V65.852a3.1,3.1,0,0,0,3.1,3.1h1.111a.673.673,0,0,1,.675.671V70.3H503.5v-.675a.672.672,0,0,1,.671-.671h1.068a3.1,3.1,0,0,0,3.1-3.1v-11a3.1,3.1,0,0,0-3.1-3.105h-5.492v4.98a3.1,3.1,0,0,0,3.1,3.105h1.088a.673.673,0,0,1,.675.671v.671h-14.44V60.5a.672.672,0,0,1,.671-.671h1.092a3.1,3.1,0,0,0,3.1-3.105v-4.98h-5.492a3.1,3.1,0,0,0-3.1,3.105v11a3.1,3.1,0,0,0,3.1,3.1h1.065a.673.673,0,0,1,.675.671V70.3h-14.44v-.675a.672.672,0,0,1,.671-.671h1.115a3.1,3.1,0,0,0,3.1-3.1V34.757a3.1,3.1,0,0,0-3.1-3.105h-1.786v-.671a.672.672,0,0,1,.671-.671H490.61a.673.673,0,0,1,.675.671v.671h-1.74a3.1,3.1,0,0,0-3.1,3.105v11a3.1,3.1,0,0,0,3.1,3.105h5.492V25.657a3.1,3.1,0,0,0-3.09-3.074H481.28a3.1,3.1,0,0,0-3.09,3.1v1.238h-.675a.672.672,0,0,1-.671-.671V20.372a.672.672,0,0,1,.671-.671h39.753a.673.673,0,0,1,.675.671v5.879Z" transform="translate(-452.395 0)" fill="#b38830"/>
</svg>
